<mxfile host="app.diagrams.net" modified="2023-10-04T17:29:31.815Z" agent="Mozilla/5.0 (X11; Linux x86_64; rv:109.0) Gecko/20100101 Firefox/114.0" etag="uZmNbG3JjWKhNzqcEMYr" version="22.0.2" type="github">
  <diagram name="Página-1" id="2b693sZjarbAb1o0BpMQ">
    <mxGraphModel dx="1434" dy="795" grid="1" gridSize="10" guides="1" tooltips="1" connect="1" arrows="1" fold="1" page="1" pageScale="1" pageWidth="827" pageHeight="1169" math="0" shadow="0">
      <root>
        <mxCell id="0" />
        <mxCell id="1" parent="0" />
        <mxCell id="ylokD6zkGOaBwQn4NzQi-1" value="&lt;font style=&quot;font-size: 12px;&quot;&gt;Soldado&lt;/font&gt;" style="rounded=0;whiteSpace=wrap;html=1;" vertex="1" parent="1">
          <mxGeometry x="360" y="80" width="100" height="50" as="geometry" />
        </mxCell>
        <mxCell id="ylokD6zkGOaBwQn4NzQi-5" value="Pertenece" style="rhombus;whiteSpace=wrap;html=1;" vertex="1" parent="1">
          <mxGeometry x="355" y="170" width="110" height="70" as="geometry" />
        </mxCell>
        <mxCell id="ylokD6zkGOaBwQn4NzQi-7" value="&lt;font style=&quot;font-size: 12px;&quot;&gt;Compañía&lt;/font&gt;" style="rounded=0;whiteSpace=wrap;html=1;" vertex="1" parent="1">
          <mxGeometry x="360" y="290" width="100" height="50" as="geometry" />
        </mxCell>
        <mxCell id="ylokD6zkGOaBwQn4NzQi-10" value="Cuerpo" style="rounded=0;whiteSpace=wrap;html=1;" vertex="1" parent="1">
          <mxGeometry x="520" y="180" width="100" height="47.5" as="geometry" />
        </mxCell>
        <mxCell id="ylokD6zkGOaBwQn4NzQi-12" value="Realiza" style="rhombus;whiteSpace=wrap;html=1;" vertex="1" parent="1">
          <mxGeometry x="530" y="77.5" width="80" height="55" as="geometry" />
        </mxCell>
        <mxCell id="ylokD6zkGOaBwQn4NzQi-14" value="Servicio" style="rounded=0;whiteSpace=wrap;html=1;" vertex="1" parent="1">
          <mxGeometry x="660" y="82.5" width="90" height="45" as="geometry" />
        </mxCell>
        <mxCell id="ylokD6zkGOaBwQn4NzQi-18" value="Cód. servicio" style="ellipse;whiteSpace=wrap;html=1;" vertex="1" parent="1">
          <mxGeometry x="600" y="20" width="80" height="50" as="geometry" />
        </mxCell>
        <mxCell id="ylokD6zkGOaBwQn4NzQi-19" value="Descripción" style="ellipse;whiteSpace=wrap;html=1;" vertex="1" parent="1">
          <mxGeometry x="730" y="20" width="70" height="50" as="geometry" />
        </mxCell>
        <mxCell id="ylokD6zkGOaBwQn4NzQi-21" value="" style="endArrow=none;html=1;rounded=0;exitX=0.75;exitY=0;exitDx=0;exitDy=0;entryX=0;entryY=1;entryDx=0;entryDy=0;" edge="1" parent="1" source="ylokD6zkGOaBwQn4NzQi-14" target="ylokD6zkGOaBwQn4NzQi-19">
          <mxGeometry width="50" height="50" relative="1" as="geometry">
            <mxPoint x="740" y="80" as="sourcePoint" />
            <mxPoint x="750" y="70" as="targetPoint" />
          </mxGeometry>
        </mxCell>
        <mxCell id="ylokD6zkGOaBwQn4NzQi-22" value="" style="endArrow=none;html=1;rounded=0;exitX=0.686;exitY=0.98;exitDx=0;exitDy=0;exitPerimeter=0;" edge="1" parent="1" source="ylokD6zkGOaBwQn4NzQi-18">
          <mxGeometry width="50" height="50" relative="1" as="geometry">
            <mxPoint x="620" y="132.5" as="sourcePoint" />
            <mxPoint x="670" y="82.5" as="targetPoint" />
          </mxGeometry>
        </mxCell>
        <mxCell id="ylokD6zkGOaBwQn4NzQi-23" value="" style="endArrow=none;html=1;rounded=0;exitX=0.75;exitY=1;exitDx=0;exitDy=0;" edge="1" parent="1" source="ylokD6zkGOaBwQn4NzQi-14" target="ylokD6zkGOaBwQn4NzQi-24">
          <mxGeometry width="50" height="50" relative="1" as="geometry">
            <mxPoint x="740" y="150" as="sourcePoint" />
            <mxPoint x="720" y="130" as="targetPoint" />
          </mxGeometry>
        </mxCell>
        <mxCell id="ylokD6zkGOaBwQn4NzQi-24" value="&lt;div&gt;Fecha de &lt;br&gt;&lt;/div&gt;&lt;div&gt;realización&lt;br&gt;&lt;/div&gt;" style="ellipse;whiteSpace=wrap;html=1;" vertex="1" parent="1">
          <mxGeometry x="730" y="132.5" width="80" height="47.5" as="geometry" />
        </mxCell>
        <mxCell id="ylokD6zkGOaBwQn4NzQi-26" value="" style="endArrow=none;html=1;rounded=0;exitX=0.5;exitY=0;exitDx=0;exitDy=0;entryX=0.5;entryY=1;entryDx=0;entryDy=0;entryPerimeter=0;" edge="1" parent="1" source="ylokD6zkGOaBwQn4NzQi-5" target="ylokD6zkGOaBwQn4NzQi-1">
          <mxGeometry width="50" height="50" relative="1" as="geometry">
            <mxPoint x="364" y="182.5" as="sourcePoint" />
            <mxPoint x="414" y="132.5" as="targetPoint" />
          </mxGeometry>
        </mxCell>
        <mxCell id="ylokD6zkGOaBwQn4NzQi-27" value="" style="endArrow=none;html=1;rounded=0;exitX=0.5;exitY=0;exitDx=0;exitDy=0;entryX=0.5;entryY=1;entryDx=0;entryDy=0;" edge="1" parent="1" source="ylokD6zkGOaBwQn4NzQi-7" target="ylokD6zkGOaBwQn4NzQi-5">
          <mxGeometry width="50" height="50" relative="1" as="geometry">
            <mxPoint x="364" y="290" as="sourcePoint" />
            <mxPoint x="400" y="270" as="targetPoint" />
          </mxGeometry>
        </mxCell>
        <mxCell id="ylokD6zkGOaBwQn4NzQi-28" value="" style="endArrow=none;html=1;rounded=0;entryX=0;entryY=0.5;entryDx=0;entryDy=0;exitX=1;exitY=0.5;exitDx=0;exitDy=0;" edge="1" parent="1" source="ylokD6zkGOaBwQn4NzQi-5" target="ylokD6zkGOaBwQn4NzQi-10">
          <mxGeometry width="50" height="50" relative="1" as="geometry">
            <mxPoint x="480" y="220" as="sourcePoint" />
            <mxPoint x="510" y="160" as="targetPoint" />
          </mxGeometry>
        </mxCell>
        <mxCell id="ylokD6zkGOaBwQn4NzQi-31" value="Cuartel" style="rounded=0;whiteSpace=wrap;html=1;" vertex="1" parent="1">
          <mxGeometry x="200" y="180" width="100" height="47.5" as="geometry" />
        </mxCell>
        <mxCell id="ylokD6zkGOaBwQn4NzQi-32" value="" style="endArrow=none;html=1;rounded=0;exitX=1;exitY=0.5;exitDx=0;exitDy=0;entryX=0;entryY=0.5;entryDx=0;entryDy=0;" edge="1" parent="1" source="ylokD6zkGOaBwQn4NzQi-31" target="ylokD6zkGOaBwQn4NzQi-5">
          <mxGeometry width="50" height="50" relative="1" as="geometry">
            <mxPoint x="310" y="260" as="sourcePoint" />
            <mxPoint x="340" y="180" as="targetPoint" />
          </mxGeometry>
        </mxCell>
        <mxCell id="ylokD6zkGOaBwQn4NzQi-33" value="" style="endArrow=none;html=1;rounded=0;entryX=0;entryY=0.5;entryDx=0;entryDy=0;exitX=1;exitY=0.5;exitDx=0;exitDy=0;" edge="1" parent="1" source="ylokD6zkGOaBwQn4NzQi-1" target="ylokD6zkGOaBwQn4NzQi-12">
          <mxGeometry width="50" height="50" relative="1" as="geometry">
            <mxPoint x="460" y="110" as="sourcePoint" />
            <mxPoint x="510" y="60" as="targetPoint" />
          </mxGeometry>
        </mxCell>
        <mxCell id="ylokD6zkGOaBwQn4NzQi-34" value="" style="endArrow=none;html=1;rounded=0;entryX=0;entryY=0.5;entryDx=0;entryDy=0;exitX=1;exitY=0.5;exitDx=0;exitDy=0;" edge="1" parent="1" source="ylokD6zkGOaBwQn4NzQi-12" target="ylokD6zkGOaBwQn4NzQi-14">
          <mxGeometry width="50" height="50" relative="1" as="geometry">
            <mxPoint x="610" y="104.5" as="sourcePoint" />
            <mxPoint x="660" y="104.5" as="targetPoint" />
          </mxGeometry>
        </mxCell>
        <mxCell id="ylokD6zkGOaBwQn4NzQi-35" value="" style="endArrow=none;html=1;rounded=0;exitX=0;exitY=0.25;exitDx=0;exitDy=0;" edge="1" parent="1" source="ylokD6zkGOaBwQn4NzQi-1" target="ylokD6zkGOaBwQn4NzQi-36">
          <mxGeometry width="50" height="50" relative="1" as="geometry">
            <mxPoint x="310" y="80" as="sourcePoint" />
            <mxPoint x="360" y="90" as="targetPoint" />
          </mxGeometry>
        </mxCell>
        <mxCell id="ylokD6zkGOaBwQn4NzQi-36" value="Graduación" style="ellipse;whiteSpace=wrap;html=1;" vertex="1" parent="1">
          <mxGeometry x="250" y="27.5" width="80" height="50" as="geometry" />
        </mxCell>
        <mxCell id="ylokD6zkGOaBwQn4NzQi-37" value="" style="endArrow=none;html=1;rounded=0;exitX=0.25;exitY=0;exitDx=0;exitDy=0;" edge="1" parent="1" source="ylokD6zkGOaBwQn4NzQi-1" target="ylokD6zkGOaBwQn4NzQi-38">
          <mxGeometry width="50" height="50" relative="1" as="geometry">
            <mxPoint x="370" y="80" as="sourcePoint" />
            <mxPoint x="370" y="50" as="targetPoint" />
          </mxGeometry>
        </mxCell>
        <mxCell id="ylokD6zkGOaBwQn4NzQi-38" value="&lt;div&gt;Nombre&lt;/div&gt;&lt;div&gt;completo&lt;br&gt;&lt;/div&gt;" style="ellipse;whiteSpace=wrap;html=1;" vertex="1" parent="1">
          <mxGeometry x="350" y="10" width="80" height="50" as="geometry" />
        </mxCell>
        <mxCell id="ylokD6zkGOaBwQn4NzQi-39" value="" style="endArrow=none;html=1;rounded=0;entryX=0;entryY=1;entryDx=0;entryDy=0;" edge="1" parent="1" target="ylokD6zkGOaBwQn4NzQi-41">
          <mxGeometry width="50" height="50" relative="1" as="geometry">
            <mxPoint x="440" y="80" as="sourcePoint" />
            <mxPoint x="454.80378409371883" y="71.50595658939176" as="targetPoint" />
          </mxGeometry>
        </mxCell>
        <mxCell id="ylokD6zkGOaBwQn4NzQi-41" value="Cód. soldado" style="ellipse;whiteSpace=wrap;html=1;" vertex="1" parent="1">
          <mxGeometry x="450" y="10" width="80" height="50" as="geometry" />
        </mxCell>
        <mxCell id="ylokD6zkGOaBwQn4NzQi-42" value="" style="endArrow=none;html=1;rounded=0;exitX=1;exitY=0.5;exitDx=0;exitDy=0;" edge="1" parent="1" source="ylokD6zkGOaBwQn4NzQi-10" target="ylokD6zkGOaBwQn4NzQi-43">
          <mxGeometry width="50" height="50" relative="1" as="geometry">
            <mxPoint x="640" y="277.5" as="sourcePoint" />
            <mxPoint x="670" y="210" as="targetPoint" />
          </mxGeometry>
        </mxCell>
        <mxCell id="ylokD6zkGOaBwQn4NzQi-43" value="Denominación" style="ellipse;whiteSpace=wrap;html=1;" vertex="1" parent="1">
          <mxGeometry x="670" y="190" width="90" height="50" as="geometry" />
        </mxCell>
        <mxCell id="ylokD6zkGOaBwQn4NzQi-44" value="" style="endArrow=none;html=1;rounded=0;exitX=0.75;exitY=1;exitDx=0;exitDy=0;" edge="1" parent="1" source="ylokD6zkGOaBwQn4NzQi-10" target="ylokD6zkGOaBwQn4NzQi-45">
          <mxGeometry width="50" height="50" relative="1" as="geometry">
            <mxPoint x="620" y="260" as="sourcePoint" />
            <mxPoint x="610" y="227.5" as="targetPoint" />
          </mxGeometry>
        </mxCell>
        <mxCell id="ylokD6zkGOaBwQn4NzQi-45" value="Cód. de cuerpo" style="ellipse;whiteSpace=wrap;html=1;" vertex="1" parent="1">
          <mxGeometry x="590" y="250" width="90" height="50" as="geometry" />
        </mxCell>
        <mxCell id="ylokD6zkGOaBwQn4NzQi-46" value="" style="endArrow=none;html=1;rounded=0;exitX=0.75;exitY=1;exitDx=0;exitDy=0;" edge="1" parent="1" source="ylokD6zkGOaBwQn4NzQi-7" target="ylokD6zkGOaBwQn4NzQi-47">
          <mxGeometry width="50" height="50" relative="1" as="geometry">
            <mxPoint x="440" y="380" as="sourcePoint" />
            <mxPoint x="439" y="340" as="targetPoint" />
          </mxGeometry>
        </mxCell>
        <mxCell id="ylokD6zkGOaBwQn4NzQi-47" value="&lt;div&gt;Actividad&lt;/div&gt;&lt;div&gt;principal&lt;br&gt;&lt;/div&gt;" style="ellipse;whiteSpace=wrap;html=1;" vertex="1" parent="1">
          <mxGeometry x="434" y="360" width="96" height="50" as="geometry" />
        </mxCell>
        <mxCell id="ylokD6zkGOaBwQn4NzQi-48" value="" style="endArrow=none;html=1;rounded=0;exitX=0.25;exitY=1;exitDx=0;exitDy=0;" edge="1" parent="1" source="ylokD6zkGOaBwQn4NzQi-7" target="ylokD6zkGOaBwQn4NzQi-49">
          <mxGeometry width="50" height="50" relative="1" as="geometry">
            <mxPoint x="370" y="370" as="sourcePoint" />
            <mxPoint x="400" y="340" as="targetPoint" />
          </mxGeometry>
        </mxCell>
        <mxCell id="ylokD6zkGOaBwQn4NzQi-49" value="Nº de compañía" style="ellipse;whiteSpace=wrap;html=1;" vertex="1" parent="1">
          <mxGeometry x="314" y="360" width="100" height="50" as="geometry" />
        </mxCell>
        <mxCell id="ylokD6zkGOaBwQn4NzQi-50" value="" style="endArrow=none;html=1;rounded=0;exitX=0.25;exitY=1;exitDx=0;exitDy=0;" edge="1" parent="1" source="ylokD6zkGOaBwQn4NzQi-31" target="ylokD6zkGOaBwQn4NzQi-51">
          <mxGeometry width="50" height="50" relative="1" as="geometry">
            <mxPoint x="240" y="260" as="sourcePoint" />
            <mxPoint x="250" y="227.5" as="targetPoint" />
          </mxGeometry>
        </mxCell>
        <mxCell id="ylokD6zkGOaBwQn4NzQi-51" value="Cód. cuartel" style="ellipse;whiteSpace=wrap;html=1;" vertex="1" parent="1">
          <mxGeometry x="170" y="260" width="90" height="50" as="geometry" />
        </mxCell>
        <mxCell id="ylokD6zkGOaBwQn4NzQi-52" value="" style="endArrow=none;html=1;rounded=0;exitX=0;exitY=0.75;exitDx=0;exitDy=0;" edge="1" parent="1" source="ylokD6zkGOaBwQn4NzQi-31" target="ylokD6zkGOaBwQn4NzQi-53">
          <mxGeometry width="50" height="50" relative="1" as="geometry">
            <mxPoint x="140" y="220" as="sourcePoint" />
            <mxPoint x="200" y="210" as="targetPoint" />
          </mxGeometry>
        </mxCell>
        <mxCell id="ylokD6zkGOaBwQn4NzQi-53" value="Nombre" style="ellipse;whiteSpace=wrap;html=1;" vertex="1" parent="1">
          <mxGeometry x="90" y="210" width="80" height="50" as="geometry" />
        </mxCell>
        <mxCell id="ylokD6zkGOaBwQn4NzQi-54" value="" style="endArrow=none;html=1;rounded=0;entryX=0;entryY=0.5;entryDx=0;entryDy=0;exitX=0.729;exitY=0.913;exitDx=0;exitDy=0;exitPerimeter=0;" edge="1" parent="1" source="ylokD6zkGOaBwQn4NzQi-55" target="ylokD6zkGOaBwQn4NzQi-31">
          <mxGeometry width="50" height="50" relative="1" as="geometry">
            <mxPoint x="150" y="170" as="sourcePoint" />
            <mxPoint x="200" y="190" as="targetPoint" />
          </mxGeometry>
        </mxCell>
        <mxCell id="ylokD6zkGOaBwQn4NzQi-55" value="Ubicación" style="ellipse;whiteSpace=wrap;html=1;" vertex="1" parent="1">
          <mxGeometry x="100" y="127.5" width="85" height="40" as="geometry" />
        </mxCell>
      </root>
    </mxGraphModel>
  </diagram>
</mxfile>
